<?xml version="1.0" encoding="UTF-8"?>
<svg version="1.1" xmlns="http://www.w3.org/2000/svg" width="372" height="404">
<path d="M0 0 C122.76 0 245.52 0 372 0 C372 133.32 372 266.64 372 404 C249.24 404 126.48 404 0 404 C0 270.68 0 137.36 0 0 Z " fill="#FEFEFE" transform="translate(0,0)"/>
<path d="M0 0 C2.73803711 1.42358398 2.73803711 1.42358398 5.52734375 3.24609375 C7.07542725 4.24757446 7.07542725 4.24757446 8.65478516 5.26928711 C10.279729 6.34255249 10.279729 6.34255249 11.9375 7.4375 C13.06764492 8.1734553 14.19834547 8.90855806 15.32958984 9.64282227 C21.88672208 13.90899578 28.39720619 18.24553241 34.88061523 22.62280273 C39.6014789 25.78991357 44.45230683 28.70390141 49.34887695 31.58959961 C55.40082704 35.18052447 61.22552691 39.08653972 67.05078125 43.03125 C69.7813592 44.94261337 69.7813592 44.94261337 72 46 C72.07596686 52.63851606 72.12856456 59.27692035 72.16479492 65.91577148 C72.17989602 68.17492868 72.20037842 70.43405649 72.22631836 72.69311523 C72.26264308 75.93741093 72.27971308 79.18131956 72.29296875 82.42578125 C72.30845261 83.43836502 72.32393646 84.45094879 72.33988953 85.49421692 C72.34022942 86.90534004 72.34022942 86.90534004 72.34057617 88.3449707 C72.35056892 89.58740288 72.35056892 89.58740288 72.36076355 90.85493469 C71.91258892 93.51973785 71.14655477 94.40075556 69 96 C66.30078125 96.29296875 66.30078125 96.29296875 63.3125 96.1875 C62.31863281 96.16042969 61.32476562 96.13335937 60.30078125 96.10546875 C59.54152344 96.07066406 58.78226563 96.03585938 58 96 C58 94.02 58 92.04 58 90 C57.01 90 56.02 90 55 90 C55 88.02 55 86.04 55 84 C54.319375 84.46148437 53.63875 84.92296875 52.9375 85.3984375 C46.33804802 89.8390262 39.65595903 94.09408896 32.8840332 98.26464844 C27.75118144 101.4558921 22.91667812 104.89764299 18.13671875 108.6015625 C16 110 16 110 13 110 C12.34 108.68 11.68 107.36 11 106 C10.01 106 9.02 106 8 106 C9.485 107.98 9.485 107.98 11 110 C7.535 110.495 7.535 110.495 4 111 C4 110.34 4 109.68 4 109 C3.34 108.67 2.68 108.34 2 108 C2.680625 107.360625 3.36125 106.72125 4.0625 106.0625 C6.74866944 101.81661926 5.95524244 98.76582912 5 94 C16.66247383 85.20906401 29.02507716 77.51622032 41.3515625 69.703125 C46.27816531 66.53498514 51.13832351 63.26657147 56 60 C53.0226095 57.54833754 50.09397426 55.35607516 46.75 53.4375 C41.93665717 50.60273606 37.24490226 47.60642158 32.5625 44.5625 C31.82402832 44.08256592 31.08555664 43.60263184 30.32470703 43.1081543 C28.87641268 42.16674692 27.42816896 41.22526162 25.97998047 40.28369141 C21.67306521 37.49136583 17.33474114 34.74886024 13 32 C9.37 29.69 5.74 27.38 2 25 C1.67 57.01 1.34 89.02 1 122 C-5.435 122.99 -5.435 122.99 -12 124 C-18.4743195 127.2960172 -20.01087906 133.2063585 -22.41015625 139.72265625 C-24.16068215 143.33123421 -25.61460918 144.89695419 -29 147 C-34.87563482 148.58064388 -40.04413756 146.54334696 -45.1628418 143.68969727 C-48.28871724 141.82805163 -51.30418267 139.84109959 -54.32421875 137.8125 C-55.92463013 136.73935547 -55.92463013 136.73935547 -57.55737305 135.64453125 C-58.36343994 135.10183594 -59.16950684 134.55914062 -60 134 C-60.12970115 138.57320882 -60.18612611 143.13955686 -60.17700195 147.71459961 C-60.18394557 149.26754788 -60.2103302 150.82054277 -60.25708008 152.37280273 C-60.75183305 161.55385223 -60.75183305 161.55385223 -56.80737305 169.4074707 C-53.95110877 171.22573102 -51.08923579 172.6201196 -48 174 C-46.35561167 175.00349852 -44.72791655 176.03504496 -43.12109375 177.09765625 C-41.56001401 178.08612417 -39.99881728 179.07440734 -38.4375 180.0625 C-37.66470703 180.55298828 -36.89191406 181.04347656 -36.09570312 181.54882812 C-30.44892645 185.1208955 -24.74263631 188.58433643 -19 192 C-19.00169189 190.45844238 -19.00169189 190.45844238 -19.00341797 188.88574219 C-18.99970383 185.01606156 -18.95652264 181.14759577 -18.90234375 177.27832031 C-18.88434781 175.61433828 -18.876585 173.95020889 -18.87988281 172.28613281 C-18.89359721 160.88946844 -18.20429347 151.14334142 -10.34179688 142.09082031 C-2.85012814 135.14888154 5.91309861 133.09357607 15.6875 131.375 C17.33008789 131.06949219 17.33008789 131.06949219 19.00585938 130.7578125 C51.77717976 124.73977132 51.77717976 124.73977132 62 131 C67.15534675 135.62084591 71.62141006 140.53304576 72.22705078 147.67895508 C72.21134033 149.08504028 72.21134033 149.08504028 72.1953125 150.51953125 C72.18564453 152.0519043 72.18564453 152.0519043 72.17578125 153.61523438 C72.15064453 155.19788086 72.15064453 155.19788086 72.125 156.8125 C72.11597656 157.88693359 72.10695313 158.96136719 72.09765625 160.06835938 C72.07415306 162.71246854 72.04129575 165.35611872 72 168 C69.18743719 168.02684312 66.37512759 168.04676188 63.5625 168.0625 C62.76005859 168.07087891 61.95761719 168.07925781 61.13085938 168.08789062 C59.08704779 168.0965143 57.04316098 168.0522815 55 168 C52.67418956 165.67418956 53.64290142 158.94718655 53.5703125 155.61328125 C53.52390625 154.41638672 53.52390625 154.41638672 53.4765625 153.1953125 C53.45674316 152.46328613 53.43692383 151.73125977 53.41650391 150.97705078 C52.88106189 148.43542742 52.09630386 147.51079279 50 146 C46.87955666 146.13382654 44.06817746 146.48391197 41 147 C39.85724609 147.17515137 38.71449219 147.35030273 37.53710938 147.53076172 C34.28092157 148.0362485 31.0288916 148.56149191 27.77832031 149.10180664 C25.74114676 149.43896524 23.70268297 149.76742168 21.6640625 150.09570312 C19.71886719 150.41764648 19.71886719 150.41764648 17.734375 150.74609375 C16.56100586 150.93872803 15.38763672 151.1313623 14.17871094 151.32983398 C8.27945543 152.57357103 5.43624774 153.90942439 2 159 C1.4173511 161.84083558 1.4173511 161.84083558 1.51757812 164.90429688 C1.50736633 166.65135925 1.50736633 166.65135925 1.49694824 168.43371582 C1.51392761 170.30730774 1.51392761 170.30730774 1.53125 172.21875 C1.52047934 174.19064326 1.50968674 176.16253669 1.49759674 178.1344223 C1.48176872 181.58963587 1.49165671 185.04477402 1.5 188.5 C1.5099571 192.623561 1.51539435 196.7467242 1.4901123 200.87023926 C1.47610032 203.43555292 1.47980429 206.00103758 1.50305176 208.56628418 C1.49283997 210.31334656 1.49283997 210.31334656 1.48242188 212.09570312 C1.48560425 213.11764771 1.48878662 214.13959229 1.49206543 215.19250488 C0.87624473 218.70608969 -0.60916673 220.41359755 -3 223 C-8.70144642 222.53530531 -12.42321495 220.24779634 -17.125 217.25 C-17.90125732 216.7655542 -18.67751465 216.2811084 -19.47729492 215.78198242 C-26.33250742 211.48183865 -33.11212997 207.06181135 -39.8828125 202.63012695 C-44.42346684 199.65984127 -48.98532565 196.75048495 -53.625 193.9375 C-54.55030014 193.33970734 -55.47560028 192.74191467 -56.42893982 192.12600708 C-59.02823835 190.49791979 -61.66102321 189.25098351 -64.4723053 188.0295105 C-70.67013771 185.05538841 -76.55975624 181.85669432 -79.07044601 175.13355255 C-80.72331407 167.04580307 -80.62640296 158.80842381 -80.51665378 150.58967447 C-80.48896543 147.70184516 -80.51844406 144.81569997 -80.54766995 141.92797267 C-80.61613365 135.10613506 -80.59401847 128.28885304 -80.51147461 121.46728516 C-80.42808445 114.46493456 -80.48606362 107.47409459 -80.61610168 100.47271359 C-80.72398782 94.4280919 -80.74891588 88.38698955 -80.70792443 82.34154499 C-80.68396071 78.74508016 -80.68829157 75.15504475 -80.77050591 71.55929947 C-81.21144217 49.93495905 -81.21144217 49.93495905 -75.9054451 43.4335556 C-70.92118939 39.02797734 -65.4078491 35.93379551 -59.40069771 33.13540268 C-56.44225611 31.73621672 -53.83371023 30.07923714 -51.125 28.25 C-50.31289062 27.73953125 -49.50078125 27.2290625 -48.6640625 26.703125 C-45.24363909 24.51646135 -41.87262804 22.2594472 -38.5 20 C-33.31966454 16.53111212 -28.11737123 13.11041363 -22.828125 9.80859375 C-20.65834928 8.42101618 -18.53826886 7.00039507 -16.421875 5.53515625 C-15.80256104 5.11500244 -15.18324707 4.69484863 -14.54516602 4.26196289 C-13.33564879 3.44030505 -12.1349839 2.605412 -10.94506836 1.75561523 C-6.81272821 -1.01985499 -4.74608886 -1.21529086 0 0 Z " fill="#2B2C38" transform="translate(193,92)"/>
<path d="M0 0 C16.21125235 9.26357277 16.21125235 9.26357277 22.5625 13.4375 C23.27229004 13.89922607 23.98208008 14.36095215 24.71337891 14.83666992 C29.16152268 17.74530224 33.53251837 20.74914816 37.875 23.8125 C43.36672688 27.66294154 49.03076153 30.94958756 55 34 C55 34.99 55 35.98 55 37 C53.1484375 38.55078125 53.1484375 38.55078125 50.375 40.3125 C49.28445312 41.01375 48.19390625 41.715 47.0703125 42.4375 C45.71405745 43.29248539 44.35723169 44.14656581 43 45 C39.41494718 47.26812357 35.83237845 49.54015541 32.25 51.8125 C31.30608398 52.4098999 30.36216797 53.0072998 29.38964844 53.62280273 C21.11537534 58.87890787 13.02217083 64.36839011 5 70 C5.09539062 70.61633301 5.19078125 71.23266602 5.2890625 71.86767578 C5.39992188 72.6770459 5.51078125 73.48641602 5.625 74.3203125 C5.74101562 75.12227051 5.85703125 75.92422852 5.9765625 76.75048828 C6.01165211 80.11836028 4.2284775 81.63224266 2 84 C2.33 84.99 2.66 85.98 3 87 C4.65 86.67 6.3 86.34 8 86 C6.515 84.02 6.515 84.02 5 82 C6.65 81.67 8.3 81.34 10 81 C10.66 82.65 11.32 84.3 12 86 C16.06041907 83.79325051 19.86304353 81.43623363 23.625 78.75 C28.54263353 75.25235184 33.64145882 72.12612199 38.80078125 69 C42.68007163 66.57485144 46.38586509 63.95439025 50.07421875 61.25 C52 60 52 60 54 60 C54 61.98 54 63.96 54 66 C54.99 66 55.98 66 57 66 C57 67.98 57 69.96 57 72 C57.66 72 58.32 72 59 72 C59.495 70.02 59.495 70.02 60 68 C60 69.32 60 70.64 60 72 C60.66 72 61.32 72 62 72 C62 70.35 62 68.7 62 67 C62.33 67 62.66 67 63 67 C63 68.65 63 70.3 63 72 C63.66 72 64.32 72 65 72 C65.495 70.02 65.495 70.02 66 68 C66 69.32 66 70.64 66 72 C67.32 71.67 68.64 71.34 70 71 C70.33 69.68 70.66 68.36 71 67 C68.69 67 66.38 67 64 67 C64 66.67 64 66.34 64 66 C66.31 66 68.62 66 71 66 C71 51.81 71 37.62 71 23 C71.33 23 71.66 23 72 23 C72 62.6 72 102.2 72 143 C71.67 143 71.34 143 71 143 C70.9906543 142.37544922 70.98130859 141.75089844 70.97167969 141.10742188 C70.91751063 138.2375237 70.83395805 135.36917515 70.75 132.5 C70.73582031 131.51773438 70.72164062 130.53546875 70.70703125 129.5234375 C70.46138275 122.15398239 69.09513514 116.75100901 64.359375 111.01171875 C56.968136 104.93009249 50.47016351 103.37482494 41 104 C35.92173519 104.64941707 30.88407561 105.46325007 25.84130859 106.34375 C23.50706728 106.74877373 21.17002113 107.13291102 18.83203125 107.515625 C6.92351524 109.52471006 -6.14366701 111.86186616 -13.64794922 122.29003906 C-18.98394175 131.78494193 -18.89538176 140.6616739 -18.875 151.25 C-18.89316446 152.9778947 -18.91397877 154.70576367 -18.9375 156.43359375 C-18.98884973 160.62272589 -19.00446634 164.81057083 -19 169 C-25.97802019 165.2798127 -32.77599407 161.38519972 -39.4375 157.125 C-40.57155273 156.40763672 -40.57155273 156.40763672 -41.72851562 155.67578125 C-43.30076768 154.67681473 -44.86075541 153.65831585 -46.40869141 152.62207031 C-49.05016335 150.90311031 -49.05016335 150.90311031 -52.24365234 149.43261719 C-55.77372166 147.56151888 -58.30914648 145.96563249 -61 143 C-62.46736177 137.25612269 -62.14672625 131.86980197 -61.75 126 C-61.68972643 124.4468213 -61.63498739 122.8934174 -61.5859375 121.33984375 C-61.45443719 117.554285 -61.24799131 113.77964199 -61 110 C-57.25944455 111.43158501 -54.34578625 113.04506293 -51.125 115.4375 C-44.99051116 119.78691602 -39.82342341 122.75856925 -32.0703125 122.390625 C-28.31202808 121.68151473 -27.15556068 120.11358765 -25 117 C-24.17994778 115.03242505 -23.39103764 113.05172677 -22.625 111.0625 C-20.49825237 105.61480577 -18.1570615 101.91887373 -13 99 C-9 98 -9 98 0 98 C0 65.66 0 33.32 0 0 Z " fill="#FAFBFB" transform="translate(194,116)"/>
<path d="M0 0 C16.21125235 9.26357277 16.21125235 9.26357277 22.5625 13.4375 C23.27229004 13.89922607 23.98208008 14.36095215 24.71337891 14.83666992 C29.16152268 17.74530224 33.53251837 20.74914816 37.875 23.8125 C43.36672688 27.66294154 49.03076153 30.94958756 55 34 C55 34.99 55 35.98 55 37 C53.1484375 38.55078125 53.1484375 38.55078125 50.375 40.3125 C49.28445312 41.01375 48.19390625 41.715 47.0703125 42.4375 C45.71405745 43.29248539 44.35723169 44.14656581 43 45 C39.41494718 47.26812357 35.83237845 49.54015541 32.25 51.8125 C31.30608398 52.4098999 30.36216797 53.0072998 29.38964844 53.62280273 C21.11537534 58.87890787 13.02217083 64.36839011 5 70 C5.33 72.97 5.66 75.94 6 79 C4 79 2 79 0 79 C0 52.93 0 26.86 0 0 Z " fill="#FBFBFC" transform="translate(194,116)"/>
<path d="M0 0 C0 19.47 0 38.94 0 59 C-3.27627406 57.68949038 -5.81063936 56.63783402 -8.72265625 54.85546875 C-9.41673584 54.43193115 -10.11081543 54.00839355 -10.82592773 53.57202148 C-11.56399658 53.11512939 -12.30206543 52.6582373 -13.0625 52.1875 C-13.83601807 51.7119165 -14.60953613 51.23633301 -15.40649414 50.74633789 C-25.72929448 44.36300264 -35.90167339 37.73221774 -46 31 C-44.66824482 27.00473447 -42.23937382 26.13877978 -38.75 24.1875 C-31.08741744 19.75799869 -23.74704059 14.90969243 -16.41113281 9.96166992 C-1.62702904 0 -1.62702904 0 0 0 Z " fill="#FBFBFC" transform="translate(175,122)"/>
<path d="M0 0 C1.8871875 0.01546875 1.8871875 0.01546875 3.8125 0.03125 C3.87981323 0.95514526 3.87981323 0.95514526 3.94848633 1.89770508 C5.03602928 16.61542525 6.43438914 31.26959788 8.12890625 45.9296875 C8.29894165 47.45299683 8.29894165 47.45299683 8.47241211 49.00708008 C8.70303212 51.05782672 8.94645351 53.10716663 9.20141602 55.1550293 C9.31283936 56.13640869 9.4242627 57.11778809 9.5390625 58.12890625 C9.64428223 59.00039307 9.74950195 59.87187988 9.85791016 60.76977539 C9.8125 63.03125 9.8125 63.03125 7.625 66.09375 C6.2328125 67.0528125 6.2328125 67.0528125 4.8125 68.03125 C3.9153125 68.711875 3.9153125 68.711875 3 69.40625 C-0.49343878 70.40437537 -3.74643853 69.99392791 -7.1875 69.03125 C-9.94851146 67.21015734 -11.70850548 65.98923903 -13.1875 63.03125 C-12.99579231 54.4661561 -11.57531674 45.9015295 -10.45910645 37.41650391 C-8.91561687 25.63742393 -7.54552529 13.91768967 -7.1875 2.03125 C-7.8475 1.70125 -8.5075 1.37125 -9.1875 1.03125 C-6.07168088 0.25229522 -3.19516409 -0.02618987 0 0 Z " fill="#7BC3C3" transform="translate(230.1875,238.96875)"/>
<path d="M0 0 C0.33 0 0.66 0 1 0 C1 39.6 1 79.2 1 120 C0.67 120 0.34 120 0 120 C-0.0093457 119.37544922 -0.01869141 118.75089844 -0.02832031 118.10742188 C-0.08248937 115.2375237 -0.16604195 112.36917515 -0.25 109.5 C-0.26417969 108.51773438 -0.27835937 107.53546875 -0.29296875 106.5234375 C-0.53795784 99.17376475 -1.82236878 93.61837649 -6.74609375 88.01171875 C-7.30425781 87.57472656 -7.86242187 87.13773437 -8.4375 86.6875 C-8.99308594 86.23761719 -9.54867187 85.78773438 -10.12109375 85.32421875 C-12.0330997 83.88445787 -12.0330997 83.88445787 -14.57543945 82.86254883 C-17 81 -17 81 -17.64355469 77.8046875 C-17.65290039 76.50789063 -17.66224609 75.21109375 -17.671875 73.875 C-17.68462463 73.17286377 -17.69737427 72.47072754 -17.71051025 71.74731445 C-17.74682282 69.49780378 -17.74951794 67.24977742 -17.75 65 C-17.77176642 62.78514625 -17.80051519 60.57046981 -17.83044434 58.35571289 C-17.84961805 56.91873599 -17.86600904 55.48171907 -17.8795166 54.04467773 C-17.94728993 48.32434153 -18.3405484 42.68048542 -19 37 C-18.34 37 -17.68 37 -17 37 C-17 38.98 -17 40.96 -17 43 C-16.01 43 -15.02 43 -14 43 C-14 44.98 -14 46.96 -14 49 C-13.34 49 -12.68 49 -12 49 C-11.67 47.68 -11.34 46.36 -11 45 C-11 46.32 -11 47.64 -11 49 C-10.34 49 -9.68 49 -9 49 C-9 47.35 -9 45.7 -9 44 C-8.67 44 -8.34 44 -8 44 C-8 45.65 -8 47.3 -8 49 C-7.34 49 -6.68 49 -6 49 C-5.67 47.68 -5.34 46.36 -5 45 C-5 46.32 -5 47.64 -5 49 C-3.02 48.505 -3.02 48.505 -1 48 C-0.67 46.68 -0.34 45.36 0 44 C-2.31 44 -4.62 44 -7 44 C-7 43.67 -7 43.34 -7 43 C-4.69 43 -2.38 43 0 43 C0 28.81 0 14.62 0 0 Z " fill="#79C3C2" transform="translate(265,139)"/>
<path d="M0 0 C4.38400388 1.66182166 8.03422534 3.90733608 11.875 6.5625 C17.8085888 10.60601034 23.84294704 14.38926857 30.07568359 17.95532227 C33.52501265 19.96482851 36.32050052 22.03459859 39 25 C37.96875 25.33 36.9375 25.66 35.875 26 C29.85730537 28.55111192 26.71284209 34.30685252 24 40 C20.65466054 38.73797473 17.65303856 37.30648677 14.609375 35.43359375 C13.81789062 34.94826172 13.02640625 34.46292969 12.2109375 33.96289062 C11.39882812 33.45951172 10.58671875 32.95613281 9.75 32.4375 C8.92242187 31.93025391 8.09484375 31.42300781 7.2421875 30.90039062 C1.15051972 27.15051972 1.15051972 27.15051972 0 26 C-0.08748207 24.07332493 -0.10697334 22.14348139 -0.09765625 20.21484375 C-0.09443359 19.04501953 -0.09121094 17.87519531 -0.08789062 16.66992188 C-0.07951172 15.43822266 -0.07113281 14.20652344 -0.0625 12.9375 C-0.05798828 11.70193359 -0.05347656 10.46636719 -0.04882812 9.19335938 C-0.03699608 6.12885883 -0.02051173 3.06445279 0 0 Z " fill="#F9F9FA" transform="translate(133,178)"/>
<path d="M0 0 C0.33 0 0.66 0 1 0 C1 39.6 1 79.2 1 120 C0.67 120 0.34 120 0 120 C-0.0093457 119.37544922 -0.01869141 118.75089844 -0.02832031 118.10742188 C-0.08248937 115.2375237 -0.16604195 112.36917515 -0.25 109.5 C-0.26417969 108.51773438 -0.27835937 107.53546875 -0.29296875 106.5234375 C-0.53795784 99.17376475 -1.82236878 93.61837649 -6.74609375 88.01171875 C-7.30425781 87.57472656 -7.86242187 87.13773437 -8.4375 86.6875 C-8.99308594 86.23761719 -9.54867187 85.78773438 -10.12109375 85.32421875 C-12.0330997 83.88445787 -12.0330997 83.88445787 -14.57543945 82.86254883 C-17 81 -17 81 -17.64355469 77.8046875 C-17.65290039 76.50789063 -17.66224609 75.21109375 -17.671875 73.875 C-17.68462463 73.17286377 -17.69737427 72.47072754 -17.71051025 71.74731445 C-17.74682282 69.49780378 -17.74951794 67.24977742 -17.75 65 C-17.77176642 62.78514625 -17.80051519 60.57046981 -17.83044434 58.35571289 C-17.84961805 56.91873599 -17.86600904 55.48171907 -17.8795166 54.04467773 C-17.94728993 48.32434153 -18.3405484 42.68048542 -19 37 C-18.34 37 -17.68 37 -17 37 C-17 38.98 -17 40.96 -17 43 C-16.01 43 -15.02 43 -14 43 C-14.16371094 44.17433594 -14.32742187 45.34867188 -14.49609375 46.55859375 C-15.25398412 53.37960707 -15.10641255 60.20876389 -15.0625 67.0625 C-15.05747314 68.41861813 -15.05291234 69.77473808 -15.04882812 71.13085938 C-15.03712079 74.42061994 -15.02072211 77.71028594 -15 81 C-13.35 81 -11.7 81 -10 81 C-9.67 81.99 -9.34 82.98 -9 84 C-6.98491642 84.73323796 -6.98491642 84.73323796 -5 85 C-5 85.66 -5 86.32 -5 87 C-4.01 87 -3.02 87 -2 87 C-1.97528262 82.21281308 -1.95713175 77.4256633 -1.94506836 72.63842773 C-1.94003935 71.00984042 -1.93321535 69.38125763 -1.92456055 67.75268555 C-1.91243231 65.41193528 -1.90675737 63.0712447 -1.90234375 60.73046875 C-1.89718246 60.00224411 -1.89202118 59.27401947 -1.88670349 58.52372742 C-1.88635721 55.40397712 -2.00544396 52.98366812 -3 50 C-1.5625 46.8125 -1.5625 46.8125 0 44 C-2.31 44 -4.62 44 -7 44 C-7 43.67 -7 43.34 -7 43 C-4.69 43 -2.38 43 0 43 C0 28.81 0 14.62 0 0 Z " fill="#88A5A7" transform="translate(265,139)"/>
<path d="M0 0 C2.5 0.0625 2.5 0.0625 5 1 C6.86007925 4.27728249 7 6.1659754 7 10 C7.94875 10.12375 8.8975 10.2475 9.875 10.375 C13 11 13 11 15 13 C9.375 18 9.375 18 6 18 C5.34 16.68 4.68 15.36 4 14 C3.01 14 2.02 14 1 14 C1.99 15.32 2.98 16.64 4 18 C1.69 18.33 -0.62 18.66 -3 19 C-3 18.34 -3 17.68 -3 17 C-3.66 16.67 -4.32 16.34 -5 16 C-4.319375 15.360625 -3.63875 14.72125 -2.9375 14.0625 C-0.49340917 10.19925966 -0.97672125 8.32076996 -1.8359375 3.98828125 C-1.89007813 3.33214844 -1.94421875 2.67601562 -2 2 C-1.34 1.34 -0.68 0.68 0 0 Z " fill="#262934" transform="translate(200,184)"/>
<path d="M0 0 C2.97 0 5.94 0 9 0 C9 5.28 9 10.56 9 16 C9.66 16.33 10.32 16.66 11 17 C7.37 17.33 3.74 17.66 0 18 C0 12.06 0 6.12 0 0 Z " fill="#7EC5C4" transform="translate(224,203)"/>
<path d="M0 0 C2 2 2 2 2.20703125 5.609375 C2.05761798 12.11080105 1.46889775 18.58994871 0.88305664 25.06396484 C0.68922292 27.23074029 0.50939349 29.39838752 0.33007812 31.56640625 C-1.5210236 52.86607253 -1.5210236 52.86607253 -6 61 C-5.38574176 52.41958018 -4.39325766 43.91163944 -3.27160645 35.38525391 C-1.72811687 23.60617393 -0.35802529 11.88643967 0 0 Z " fill="#91C3C2" transform="translate(223,241)"/>
<path d="M0 0 C0.66 0 1.32 0 2 0 C2 1.98 2 3.96 2 6 C2.99 6 3.98 6 5 6 C4.83628906 7.17433594 4.67257813 8.34867188 4.50390625 9.55859375 C3.74601588 16.37960707 3.89358745 23.20876389 3.9375 30.0625 C3.94252686 31.41861813 3.94708766 32.77473808 3.95117188 34.13085938 C3.96287921 37.42061994 3.97927789 40.71028594 4 44 C5.65 44 7.3 44 9 44 C9.33 44.99 9.66 45.98 10 47 C10.639375 47.12375 11.27875 47.2475 11.9375 47.375 C12.618125 47.58125 13.29875 47.7875 14 48 C15.25 50.5625 15.25 50.5625 16 53 C12.55031331 51.46680592 9.93051669 49.35870856 7 47 C6.13600586 46.60941406 5.27201172 46.21882813 4.38183594 45.81640625 C2 44 2 44 1.35644531 40.8046875 C1.34709961 39.50789063 1.33775391 38.21109375 1.328125 36.875 C1.31537537 36.17286377 1.30262573 35.47072754 1.28948975 34.74731445 C1.25317718 32.49780378 1.25048206 30.24977742 1.25 28 C1.22823358 25.78514625 1.19948481 23.57046981 1.16955566 21.35571289 C1.15038195 19.91873599 1.13399096 18.48171907 1.1204834 17.04467773 C1.05271007 11.32434153 0.6594516 5.68048542 0 0 Z " fill="#87BABD" transform="translate(246,176)"/>
<path d="M0 0 C2.08304886 3.51842707 2.5796243 6.8496079 3.125 10.875 C3.29257813 12.06867188 3.46015625 13.26234375 3.6328125 14.4921875 C3.97093808 17.72236595 4.21543967 20.75903794 4 24 C2 26.375 2 26.375 0 28 C-0.99 27.67 -1.98 27.34 -3 27 C-2.34 27 -1.68 27 -1 27 C-0.97281684 24.14576808 -0.95307295 21.29179985 -0.9375 18.4375 C-0.92912109 17.63763672 -0.92074219 16.83777344 -0.91210938 16.01367188 C-0.89683644 12.27180254 -0.97922675 8.72560371 -1.62890625 5.03515625 C-1.75136719 4.03355469 -1.87382812 3.03195312 -2 2 C-1.34 1.34 -0.68 0.68 0 0 Z " fill="#83BEBC" transform="translate(236,278)"/>
<path d="M0 0 C5.61 0 11.22 0 17 0 C16.67 1.98 16.34 3.96 16 6 C11.61414671 6.70173653 7.44209357 7.10834375 3 7 C3 5.02 3 3.04 3 1 C2.01 0.67 1.02 0.34 0 0 Z " fill="#4A6E74" transform="translate(248,181)"/>
<path d="M0 0 C0.33 0 0.66 0 1 0 C2.03987597 4.24945853 2.12989631 8.35927856 2.09765625 12.70703125 C2.09553383 13.79512337 2.09553383 13.79512337 2.09336853 14.90519714 C2.08779931 17.2076745 2.07525261 19.51005235 2.0625 21.8125 C2.05748102 23.37955588 2.05291881 24.9466133 2.04882812 26.51367188 C2.03783998 30.34248589 2.02059673 34.17122611 2 38 C1.01 37.67 0.02 37.34 -1 37 C-1.02944154 32.89584883 -1.04694527 28.79172544 -1.0625 24.6875 C-1.07087891 23.53958984 -1.07925781 22.39167969 -1.08789062 21.20898438 C-1.10808977 14.07868651 -0.79718119 7.08655428 0 0 Z " fill="#D8F2F2" transform="translate(246,182)"/>
<path d="M0 0 C2.97 0 5.94 0 9 0 C9 5.28 9 10.56 9 16 C9.66 16.33 10.32 16.66 11 17 C9.68 16.67 8.36 16.34 7 16 C7 11.71 7 7.42 7 3 C5.68 3.33 4.36 3.66 3 4 C2.12132271 7.73437848 1.91087781 11.16774573 2 15 C2.66 15 3.32 15 4 15 C4 15.66 4 16.32 4 17 C4.66 17.33 5.32 17.66 6 18 C4.02 18 2.04 18 0 18 C0 12.06 0 6.12 0 0 Z " fill="#89B9BA" transform="translate(224,203)"/>
<path d="M0 0 C0.66 0.33 1.32 0.66 2 1 C2.38133299 2.9914056 2.71325582 4.99279077 3 7 C3.33 7.66 3.66 8.32 4 9 C-0.875 8.125 -0.875 8.125 -2 7 C-2.598125 7.515625 -3.19625 8.03125 -3.8125 8.5625 C-4.534375 9.036875 -5.25625 9.51125 -6 10 C-6.99 9.67 -7.98 9.34 -9 9 C-8.06725891 7.87105124 -7.12859878 6.74699124 -6.1875 5.625 C-5.66542969 4.99851563 -5.14335937 4.37203125 -4.60546875 3.7265625 C-3 2 -3 2 0 0 Z M3 2 C3.33 2.99 3.66 3.98 4 5 C3.34 4.67 2.68 4.34 2 4 C2.33 3.34 2.66 2.68 3 2 Z " fill="#2E2F3C" transform="translate(188,230)"/>
<path d="M0 0 C0.66 0.33 1.32 0.66 2 1 C1.835 1.763125 1.67 2.52625 1.5 3.3125 C0.90854604 6.03596236 0.90854604 6.03596236 1 9 C0.01 9.33 -0.98 9.66 -2 10 C-4.6875 8.5625 -4.6875 8.5625 -7 7 C-5.66667905 3.00003714 -3.5042173 2.16217663 0 0 Z " fill="#ECEEF0" transform="translate(136,146)"/>
<path d="M0 0 C0.99 0.33 1.98 0.66 3 1 C3 1.66 3 2.32 3 3 C2.01 3.495 2.01 3.495 1 4 C1 4.66 1 5.32 1 6 C4.465 7.98 4.465 7.98 8 10 C6.68 10.33 5.36 10.66 4 11 C4 10.34 4 9.68 4 9 C3.01 9.33 2.02 9.66 1 10 C-2.1875 9.0625 -2.1875 9.0625 -5 8 C-4 5 -4 5 -1 3 C-0.67 2.01 -0.34 1.02 0 0 Z " fill="#31343F" transform="translate(129,147)"/>
<path d="M0 0 C1.32 1.65 2.64 3.3 4 5 C3.01 5.33 2.02 5.66 1 6 C1.99 7.32 2.98 8.64 4 10 C1.69 10.33 -0.62 10.66 -3 11 C-3 10.34 -3 9.68 -3 9 C-3.66 8.67 -4.32 8.34 -5 8 C-4.360625 7.236875 -3.72125 6.47375 -3.0625 5.6875 C-0.85767219 3.11753287 -0.85767219 3.11753287 0 0 Z " fill="#5D5E63" transform="translate(200,192)"/>
<path d="M0 0 C1.65 1.65 3.3 3.3 5 5 C3.34385343 5.38218767 1.67542976 5.71395102 0 6 C-0.33 5.67 -0.66 5.34 -1 5 C-2.67884238 4.6068352 -4.36850045 4.25914548 -6.0625 3.9375 C-6.98160156 3.76089844 -7.90070313 3.58429688 -8.84765625 3.40234375 C-9.55792969 3.26957031 -10.26820313 3.13679687 -11 3 C-7.52890832 0.68593888 -6.05121887 0.91380385 -2 1 C-1.34 0.67 -0.68 0.34 0 0 Z " fill="#232631" transform="translate(244,233)"/>
<path d="M0 0 C0.66 0.66 1.32 1.32 2 2 C1.34 2 0.68 2 0 2 C-0.33 4.64 -0.66 7.28 -1 10 C-6.75 8.25 -6.75 8.25 -9 6 C-6.03 4.02 -3.06 2.04 0 0 Z " fill="#34343C" transform="translate(185,92)"/>
<path d="M0 0 C-0.33 1.32 -0.66 2.64 -1 4 C-1.7425 4.144375 -2.485 4.28875 -3.25 4.4375 C-5.52027739 4.90187492 -7.75759479 5.41863569 -10 6 C-10 6.99 -10 7.98 -10 9 C-10.66 9 -11.32 9 -12 9 C-11.41587805 5.78732929 -10.87905261 3.63135347 -8.15625 1.67578125 C-2.49465241 -1.2473262 -2.49465241 -1.2473262 0 0 Z " fill="#252630" transform="translate(145,122)"/>
<path d="M0 0 C0.66 0 1.32 0 2 0 C2 1.98 2 3.96 2 6 C2.99 6 3.98 6 5 6 C5.125 11.75 5.125 11.75 4 14 C3.34 14 2.68 14 2 14 C1.66576139 11.85430749 1.33263257 9.70844207 1 7.5625 C0.814375 6.36753906 0.62875 5.17257813 0.4375 3.94140625 C0 1 0 1 0 0 Z " fill="#8DABB1" transform="translate(246,176)"/>
<path d="M0 0 C5.625 -0.25 5.625 -0.25 9 2 C9.66 2.33 10.32 2.66 11 3 C11.72159424 4.64363134 12.39351421 6.31050386 13 8 C8.20983041 5.76537994 4.01254885 3.51098025 0 0 Z " fill="#33343D" transform="translate(215,129)"/>
<path d="M0 0 C4.99275057 1.27721526 7.57611908 3.17330957 11 7 C8.66666667 7 6.33333333 7 4 7 C3.67 6.01 3.34 5.02 3 4 C2.01979625 2.9805881 1.02196992 1.97753644 0 1 C0 0.67 0 0.34 0 0 Z " fill="#243541" transform="translate(247,220)"/>
<path d="M0 0 C0.6875 1.8125 0.6875 1.8125 1 4 C0 5.75 0 5.75 -2 7 C-5.6875 7.1875 -5.6875 7.1875 -9 7 C-6.24479785 4.04070881 -3.53372712 1.96318174 0 0 Z " fill="#32323C" transform="translate(218,172)"/>
<path d="M0 0 C2.625 0.375 2.625 0.375 5 1 C0.375 5.875 0.375 5.875 -3 7 C-3.66 5.68 -4.32 4.36 -5 3 C-4.01 3.33 -3.02 3.66 -2 4 C-2 3.34 -2 2.68 -2 2 C-1.34 1.34 -0.68 0.68 0 0 Z " fill="#30323C" transform="translate(142,138)"/>
<path d="M0 0 C1.98 0.99 3.96 1.98 6 3 C6 3.99 6 4.98 6 6 C4.1875 6.6875 4.1875 6.6875 2 7 C0.1875 5.8125 0.1875 5.8125 -1 4 C-0.6875 1.8125 -0.6875 1.8125 0 0 Z " fill="#31333C" transform="translate(167,177)"/>
<path d="M0 0 C0.33 0.66 0.66 1.32 1 2 C4.465 1.505 4.465 1.505 8 1 C5.6875 3.5 5.6875 3.5 3 6 C2.01 6 1.02 6 0 6 C-0.66 4.35 -1.32 2.7 -2 1 C-1.34 0.67 -0.68 0.34 0 0 Z " fill="#373943" transform="translate(206,196)"/>
<path d="M0 0 C0 3 0 3 -1 5 C-3.72265625 5.4140625 -3.72265625 5.4140625 -7.0625 5.625 C-8.16722656 5.69976562 -9.27195313 5.77453125 -10.41015625 5.8515625 C-11.26480469 5.90054687 -12.11945313 5.94953125 -13 6 C-13 5.01 -13 4.02 -13 3 C-11.783125 3.061875 -10.56625 3.12375 -9.3125 3.1875 C-5.42249954 3.20822824 -3.16367751 2.37275814 0 0 Z " fill="#E6FAFB" transform="translate(236,305)"/>
<path d="M0 0 C-5.14285714 4.42857143 -5.14285714 4.42857143 -9 5 C-9.33 4.01 -9.66 3.02 -10 2 C-6.3558226 -0.4294516 -4.28758728 -0.16179575 0 0 Z " fill="#2F323B" transform="translate(174,122)"/>
<path d="M0 0 C-1.8125 2.5 -1.8125 2.5 -4 5 C-4.99 5 -5.98 5 -7 5 C-7 4.01 -7 3.02 -7 2 C-8.65 2 -10.3 2 -12 2 C-8.09971775 -0.60018816 -4.52565431 -0.15085514 0 0 Z " fill="#3C3C44" transform="translate(208,225)"/>
<path d="M0 0 C0.66 0.33 1.32 0.66 2 1 C1.42655063 3.86724686 1.1385485 4.8614515 -1 7 C-0.67 7.66 -0.34 8.32 0 9 C-0.99 9 -1.98 9 -3 9 C-3 6.69 -3 4.38 -3 2 C-2.01 2 -1.02 2 0 2 C0 1.34 0 0.68 0 0 Z " fill="#ECEDF0" transform="translate(197,193)"/>
<path d="M0 0 C0.66 1.32 1.32 2.64 2 4 C0 6 0 6 -3.625 6.125 C-4.73875 6.08375 -5.8525 6.0425 -7 6 C-4.74259377 3.66475218 -2.7194239 1.81294927 0 0 Z " fill="#3A3A43" transform="translate(148,116)"/>
<path d="M0 0 C-0.33 0.99 -0.66 1.98 -1 3 C-2.1446875 2.9690625 -2.1446875 2.9690625 -3.3125 2.9375 C-6.10185786 2.87057159 -6.10185786 2.87057159 -9 4 C-9 3.34 -9 2.68 -9 2 C-9.99 1.67 -10.98 1.34 -12 1 C-7.9472484 0.01751476 -4.16138263 -0.08159574 0 0 Z " fill="#7BA6A9" transform="translate(233,239)"/>
<path d="M0 0 C2.31 0.66 4.62 1.32 7 2 C6.67 2.99 6.34 3.98 6 5 C3.69 5 1.38 5 -1 5 C-1.33 4.01 -1.66 3.02 -2 2 C-1.34 1.34 -0.68 0.68 0 0 Z " fill="#23252E" transform="translate(155,233)"/>
<path d="M0 0 C0 3.63 0 7.26 0 11 C-2 10 -2 10 -2.75 8.1875 C-3.05694702 5.50171361 -2.38111722 4.2747813 -1 2 C-3.31 2 -5.62 2 -8 2 C-8 1.67 -8 1.34 -8 1 C-1.125 0 -1.125 0 0 0 Z " fill="#92B2B3" transform="translate(266,181)"/>
<path d="M0 0 C2.31 0.33 4.62 0.66 7 1 C7 1.99 7 2.98 7 4 C8.32 3.67 9.64 3.34 11 3 C10.67 3.99 10.34 4.98 10 6 C5.56909529 4.79157144 3.01887244 3.48331435 0 0 Z " fill="#393942" transform="translate(147,186)"/>
<path d="M0 0 C1.24546405 2.49092811 0.7767578 3.41080733 0 6 C-1.75 6.625 -1.75 6.625 -4 7 C-5.32 6.34 -6.64 5.68 -8 5 C-4.04 2.525 -4.04 2.525 0 0 Z " fill="#36343D" transform="translate(165,105)"/>
<path d="M0 0 C0.66 1.32 1.32 2.64 2 4 C-0.3125 6.0625 -0.3125 6.0625 -3 8 C-3.99 7.67 -4.98 7.34 -6 7 C-4.02 4.69 -2.04 2.38 0 0 Z " fill="#3E3D47" transform="translate(185,232)"/>
<path d="M0 0 C0.33 0.66 0.66 1.32 1 2 C2.89533342 2.46523063 2.89533342 2.46523063 5.0625 2.625 C6.361875 2.74875 7.66125 2.8725 9 3 C7.68 3.99 6.36 4.98 5 6 C1.535 4.02 1.535 4.02 -2 2 C-1.34 1.34 -0.68 0.68 0 0 Z " fill="#373842" transform="translate(159,295)"/>
<path d="M0 0 C2.91517292 1.07401108 4.77810176 1.77810176 7 4 C6.01 4.99 5.02 5.98 4 7 C3.67 5.68 3.34 4.36 3 3 C1.68 3 0.36 3 -1 3 C-0.67 2.01 -0.34 1.02 0 0 Z " fill="#33333E" transform="translate(197,96)"/>
<path d="M0 0 C0.33 0.66 0.66 1.32 1 2 C1.99 2.33 2.98 2.66 4 3 C3.34 4.32 2.68 5.64 2 7 C0.02 5.68 -1.96 4.36 -4 3 C-2.68 2.67 -1.36 2.34 0 2 C0 1.34 0 0.68 0 0 Z " fill="#31333D" transform="translate(235,137)"/>
<path d="M0 0 C2 3 2 3 2 5 C2.66 5 3.32 5 4 5 C4 5.66 4 6.32 4 7 C4.66 7.33 5.32 7.66 6 8 C4.02 8 2.04 8 0 8 C0 5.36 0 2.72 0 0 Z " fill="#84AFB2" transform="translate(224,213)"/>
<path d="M0 0 C0.33 0.66 0.66 1.32 1 2 C-2.19990508 4.74277578 -5.00499382 6.6302836 -9 8 C-9.33 7.34 -9.66 6.68 -10 6 C-6.7 4.02 -3.4 2.04 0 0 Z " fill="#E4E6EA" transform="translate(235,184)"/>
<path d="M0 0 C0.99 0.33 1.98 0.66 3 1 C3.6875 3.0625 3.6875 3.0625 4 5 C3.01 5.33 2.02 5.66 1 6 C0.01 5.34 -0.98 4.68 -2 4 C-2 3.34 -2 2.68 -2 2 C-1.34 2 -0.68 2 0 2 C0 1.34 0 0.68 0 0 Z " fill="#F4F7F8" transform="translate(244,120)"/>
<path d="M0 0 C1.70884005 1.62339805 3.37446717 3.29319053 5 5 C5 5.66 5 6.32 5 7 C3.68 6.67 2.36 6.34 1 6 C0.4465236 3.92446352 0 2.15634036 0 0 Z " fill="#223842" transform="translate(258,227)"/>
<path d="M0 0 C3.26954202 0.56371414 4.82575883 1.49962266 7 4 C5.35 4.33 3.7 4.66 2 5 C1.34 3.35 0.68 1.7 0 0 Z " fill="#F0F1F4" transform="translate(165,199)"/>
<path d="M0 0 C1.67542976 0.28604898 3.34385343 0.61781233 5 1 C4.67 1.66 4.34 2.32 4 3 C1.03 3 -1.94 3 -5 3 C-3.68 2.34 -2.36 1.68 -1 1 C-0.67 0.67 -0.34 0.34 0 0 Z " fill="#3D4146" transform="translate(160,236)"/>
<path d="M0 0 C0.61875 0.33 1.2375 0.66 1.875 1 C3.91018344 2.14193235 3.91018344 2.14193235 6 2 C5.67 2.99 5.34 3.98 5 5 C3.35 4.67 1.7 4.34 0 4 C0 2.68 0 1.36 0 0 Z " fill="#22252F" transform="translate(129,203)"/>
<path d="M0 0 C0.639375 0.2475 1.27875 0.495 1.9375 0.75 C2.2675 1.74 2.5975 2.73 2.9375 3.75 C0.5625 3.9375 0.5625 3.9375 -2.0625 3.75 C-2.7225 2.76 -3.3825 1.77 -4.0625 0.75 C-2.0625 -0.25 -2.0625 -0.25 0 0 Z " fill="#D3D4D9" transform="translate(203.0625,197.25)"/>
<path d="M0 0 C0.33 0 0.66 0 1 0 C1 1.65 1 3.3 1 5 C1.66 5 2.32 5 3 5 C2.67 5.99 2.34 6.98 2 8 C0.68 7.67 -0.64 7.34 -2 7 C-2 6.34 -2 5.68 -2 5 C-1.34 5 -0.68 5 0 5 C0 3.35 0 1.7 0 0 Z " fill="#7CB0B5" transform="translate(256,183)"/>
<path d="M0 0 C0.33 0.66 0.66 1.32 1 2 C1.66 2.33 2.32 2.66 3 3 C2.34 4.32 1.68 5.64 1 7 C0.01 6.34 -0.98 5.68 -2 5 C-2 4.01 -2 3.02 -2 2 C-1.34 2 -0.68 2 0 2 C0 1.34 0 0.68 0 0 Z " fill="#F5F6F5" transform="translate(140,115)"/>
</svg>
